Normalized EMG Linear Envelopes
nRows=211
nColumns=4

endheader
time	 med_gas_r	  soleus_r	 tib_ant_r	
3.69254	  0.008905	  0.013341	  0.005001	
3.72581	  0.009040	  0.013296	  0.005190	
3.75907	  0.009307	  0.013313	  0.005389	
3.79234	  0.009674	  0.013356	  0.005586	
3.8256	  0.010077	  0.013417	  0.005793	
3.85887	  0.010424	  0.013501	  0.006015	
3.89214	  0.010602	  0.013571	  0.006260	
3.9254	  0.010611	  0.013603	  0.006541	
3.95867	  0.010537	  0.013584	  0.006867	
3.99194	  0.010475	  0.013515	  0.007224	
4.0252	  0.010442	  0.013425	  0.007559	
4.05847	  0.010412	  0.013321	  0.007758	
4.09173	  0.010374	  0.013180	  0.007683	
4.125	  0.010368	  0.013009	  0.007374	
4.15827	  0.010382	  0.012830	  0.007043	
4.19153	  0.010387	  0.012669	  0.006922	
4.2248	  0.010393	  0.012522	  0.007183	
4.25806	  0.010438	  0.012396	  0.007992	
4.29133	  0.010548	  0.012345	  0.009475	
4.3246	  0.010688	  0.012402	  0.011676	
4.35786	  0.010820	  0.012562	  0.014510	
4.39113	  0.010943	  0.012824	  0.017721	
4.4244	  0.011077	  0.013188	  0.020977	
4.45766	  0.011245	  0.013608	  0.023739	
4.49093	  0.011472	  0.014025	  0.025517	
4.52419	  0.011775	  0.014364	  0.026361	
4.55746	  0.012161	  0.014572	  0.026308	
4.59073	  0.012595	  0.014620	  0.025181	
4.62399	  0.012973	  0.014480	  0.023248	
4.65726	  0.013189	  0.014145	  0.020981	
4.69052	  0.013146	  0.013699	  0.018655	
4.72379	  0.012787	  0.013241	  0.016429	
4.75706	  0.012245	  0.012829	  0.014295	
4.79032	  0.011715	  0.012497	  0.012176	
4.82359	  0.011289	  0.012250	  0.010016	
4.85685	  0.010987	  0.012083	  0.007813	
4.89012	  0.010776	  0.011940	  0.005489	
4.92339	  0.010597	  0.011770	  0.003014	
4.95665	  0.010420	  0.011530	  0.000608	
4.98992	  0.010256	  0.011207	 -0.001359	
5.02319	  0.010124	  0.010840	 -0.002296	
5.05645	  0.010060	  0.010520	 -0.001118	
5.08972	  0.010186	  0.010408	  0.003799	
5.12298	  0.010747	  0.010733	  0.014457	
5.15625	  0.012086	  0.011798	  0.033056	
5.18952	  0.014526	  0.013933	  0.061719	
5.22278	  0.018291	  0.017458	  0.101935	
5.25605	  0.023504	  0.022642	  0.153731	
5.28931	  0.030054	  0.029535	  0.215436	
5.32258	  0.037489	  0.037807	  0.283364	
5.35585	  0.045242	  0.046834	  0.352658	
5.38911	  0.052671	  0.055673	  0.418789	
5.42238	  0.059147	  0.063194	  0.477967	
5.45565	  0.064451	  0.069139	  0.528605	
5.48891	  0.068595	  0.073598	  0.571549	
5.52218	  0.071676	  0.076621	  0.608792	
5.55544	  0.073841	  0.078160	  0.639914	
5.58871	  0.075584	  0.078436	  0.664883	
5.62198	  0.077612	  0.078571	  0.685603	
5.65524	  0.080475	  0.079560	  0.704028	
5.68851	  0.084239	  0.081535	  0.720010	
5.72177	  0.088723	  0.083992	  0.735112	
5.75504	  0.093791	  0.086556	  0.751512	
5.78831	  0.098708	  0.088624	  0.767990	
5.82157	  0.102422	  0.089793	  0.782749	
5.85484	  0.104154	  0.090083	  0.791480	
5.8881	  0.104818	  0.090525	  0.794292	
5.92137	  0.105534	  0.092378	  0.794949	
5.95464	  0.106836	  0.096014	  0.797998	
5.9879	  0.109171	  0.101416	  0.806724	
6.02117	  0.112772	  0.108362	  0.819363	
6.05444	  0.117240	  0.116116	  0.829758	
6.0877	  0.122032	  0.123656	  0.834417	
6.12097	  0.126363	  0.129871	  0.839605	
6.15423	  0.129463	  0.134240	  0.850851	
6.1875	  0.131058	  0.136667	  0.868921	
6.22077	  0.131301	  0.136901	  0.887466	
6.25403	  0.130356	  0.134606	  0.898276	
6.2873	  0.128725	  0.130535	  0.903210	
6.32056	  0.126464	  0.125669	  0.905305	
6.35383	  0.124393	  0.121484	  0.900837	
6.3871	  0.123532	  0.119214	  0.889362	
6.42036	  0.123833	  0.118991	  0.873909	
6.45363	  0.124533	  0.119879	  0.855509	
6.4869	  0.124965	  0.120646	  0.834135	
6.52016	  0.124875	  0.120557	  0.807855	
6.55343	  0.124464	  0.119892	  0.776148	
6.58669	  0.123695	  0.118970	  0.748193	
6.61996	  0.122212	  0.117285	  0.731191	
6.65323	  0.119475	  0.113998	  0.726477	
6.68649	  0.115794	  0.109671	  0.730945	
6.71976	  0.112221	  0.105728	  0.737869	
6.75302	  0.109284	  0.103102	  0.742872	
6.78629	  0.106963	  0.101825	  0.742701	
6.81956	  0.105271	  0.101642	  0.738357	
6.85282	  0.103850	  0.101991	  0.737415	
6.88609	  0.102927	  0.102712	  0.742584	
6.91935	  0.103009	  0.103928	  0.748544	
6.95262	  0.104121	  0.105419	  0.750555	
6.98589	  0.105742	  0.106544	  0.748213	
7.01915	  0.107462	  0.107370	  0.742310	
7.05242	  0.109352	  0.108382	  0.733670	
7.08569	  0.111068	  0.109377	  0.725528	
7.11895	  0.112602	  0.110196	  0.722193	
7.15222	  0.114175	  0.110948	  0.725420	
7.18548	  0.115674	  0.111611	  0.735027	
7.21875	  0.116833	  0.111980	  0.750622	
7.25202	  0.117294	  0.111465	  0.770504	
7.28528	  0.116431	  0.109390	  0.794097	
7.31855	  0.113779	  0.105826	  0.819530	
7.35181	  0.109937	  0.101758	  0.842916	
7.38508	  0.105919	  0.098220	  0.859320	
7.41835	  0.102559	  0.095593	  0.862991	
7.45161	  0.100672	  0.094449	  0.853569	
7.48488	  0.100160	  0.094834	  0.837966	
7.51815	  0.100147	  0.096232	  0.825000	
7.55141	  0.100022	  0.098073	  0.818992	
7.58468	  0.100166	  0.100661	  0.821426	
7.61794	  0.100450	  0.103751	  0.829203	
7.65121	  0.100481	  0.106775	  0.838108	
7.68448	  0.100971	  0.110199	  0.844199	
7.71774	  0.102544	  0.114273	  0.847195	
7.75101	  0.105167	  0.118509	  0.848231	
7.78427	  0.108691	  0.122278	  0.846335	
7.81754	  0.112765	  0.125076	  0.842433	
7.85081	  0.116823	  0.126820	  0.839894	
7.88407	  0.119968	  0.127249	  0.840456	
7.91734	  0.121987	  0.126854	  0.843797	
7.9506	  0.122456	  0.125895	  0.844689	
7.98387	  0.121131	  0.124166	  0.837744	
8.01714	  0.118333	  0.121514	  0.822747	
8.0504	  0.114522	  0.117965	  0.801510	
8.08367	  0.110187	  0.113883	  0.774829	
8.11694	  0.105888	  0.109863	  0.743525	
8.1502	  0.101875	  0.106368	  0.714444	
8.18347	  0.098366	  0.103515	  0.697553	
8.21673	  0.095643	  0.101191	  0.696381	
8.25	  0.094337	  0.099861	  0.708419	
8.28327	  0.094450	  0.099662	  0.729712	
8.31653	  0.095348	  0.100112	  0.756942	
8.3498	  0.096266	  0.100364	  0.783797	
8.38306	  0.096738	  0.099711	  0.802923	
8.41633	  0.096393	  0.097913	  0.811865	
8.4496	  0.095370	  0.095731	  0.807751	
8.48286	  0.093631	  0.093495	  0.791551	
8.51613	  0.091655	  0.091474	  0.769156	
8.5494	  0.090510	  0.090123	  0.750155	
8.58266	  0.090899	  0.089767	  0.742089	
8.61593	  0.092681	  0.090269	  0.744647	
8.64919	  0.095665	  0.091645	  0.753587	
8.68246	  0.099672	  0.093971	  0.767208	
8.71573	  0.104371	  0.097273	  0.785540	
8.74899	  0.109401	  0.101865	  0.806527	
8.78226	  0.114273	  0.107658	  0.828467	
8.81552	  0.118378	  0.113720	  0.848148	
8.84879	  0.121342	  0.119040	  0.863454	
8.88206	  0.122972	  0.123239	  0.869937	
8.91532	  0.123427	  0.126350	  0.865019	
8.94859	  0.123919	  0.128766	  0.852868	
8.98185	  0.125356	  0.130522	  0.837921	
9.01512	  0.127868	  0.131481	  0.821208	
9.04839	  0.131452	  0.131876	  0.802795	
9.08165	  0.135483	  0.131994	  0.780079	
9.11492	  0.139136	  0.131847	  0.753388	
9.14819	  0.140970	  0.130716	  0.727053	
9.18145	  0.140366	  0.128353	  0.708056	
9.21472	  0.137430	  0.125176	  0.702937	
9.24798	  0.132500	  0.121705	  0.713551	
9.28125	  0.126262	  0.118077	  0.736035	
9.31452	  0.120159	  0.114837	  0.764336	
9.34778	  0.114823	  0.112063	  0.791760	
9.38105	  0.110476	  0.109344	  0.813002	
9.41431	  0.106949	  0.106192	  0.823662	
9.44758	  0.103825	  0.102511	  0.824392	
9.48085	  0.100845	  0.098643	  0.818931	
9.51411	  0.097942	  0.095071	  0.808086	
9.54738	  0.095690	  0.092874	  0.791717	
9.58065	  0.094196	  0.092211	  0.771716	
9.61391	  0.093465	  0.092540	  0.749634	
9.64718	  0.093307	  0.093179	  0.723594	
9.68044	  0.093065	  0.093058	  0.694134	
9.71371	  0.092401	  0.091511	  0.663920	
9.74698	  0.091189	  0.088142	  0.634323	
9.78024	  0.089095	  0.082749	  0.611075	
9.81351	  0.086390	  0.076105	  0.599462	
9.84677	  0.083580	  0.069539	  0.600912	
9.88004	  0.081248	  0.063891	  0.614453	
9.91331	  0.079847	  0.059759	  0.639166	
9.94657	  0.079771	  0.057852	  0.674092	
9.97984	  0.081205	  0.058483	  0.715500	
10.0131	  0.083547	  0.061333	  0.751332	
10.0464	  0.085953	  0.065611	  0.769451	
10.0796	  0.087374	  0.069967	  0.768777	
10.1129	  0.087256	  0.072748	  0.755446	
10.1462	  0.085786	  0.073365	  0.736780	
10.1794	  0.083593	  0.072299	  0.717850	
10.2127	  0.081158	  0.070325	  0.698009	
10.246	  0.078428	  0.068055	  0.675357	
10.2792	  0.075362	  0.065657	  0.650249	
10.3125	  0.072178	  0.063416	  0.624699	
10.3458	  0.069070	  0.061560	  0.601502	
10.379	  0.066184	  0.060092	  0.583221	
10.4123	  0.063667	  0.059049	  0.568486	
10.4456	  0.061854	  0.058590	  0.552427	
10.4788	  0.060963	  0.058853	  0.533980	
10.5121	  0.060777	  0.059648	  0.515510	
10.5454	  0.060724	  0.060485	  0.496954	
10.5786	  0.060138	  0.060777	  0.477355	
10.6119	  0.058537	  0.060143	  0.458402	
10.6452	  0.055982	  0.058387	  0.438820	
10.6784	  0.052574	  0.055418	  0.416175	
